<svg width="548.9651489257812px" height="336.8px" xmlns="http://www.w3.org/2000/svg" viewBox="-24.482574462890625 -93.4 548.9651489257812 336.8" style="background: none;" preserveAspectRatio="xMidYMid"><defs><filter id="editing-hover" x="-100%" y="-100%" width="300%" height="300%"><feFlood flood-color="none" result="flood"></feFlood><feComposite operator="in" in2="SourceAlpha" in="flood" result="shadow"></feComposite><feOffset dx="-2.6" dy="1.5" in="SourceGraphic" result="offset-1"></feOffset><feOffset dx="2.6" dy="-1.5" in="shadow" result="offset-2"></feOffset><feMerge><feMergeNode in="offset-2"></feMergeNode><feMergeNode in="offset-1"></feMergeNode></feMerge></filter></defs><g filter="url(#editing-hover)"><g transform="translate(55.97140276432037, 145.0999984741211)"><path d="M81.60-133.40L81.60-133.40L81.60-133.40Q130.60-133.40 130.60-98.80L130.60-98.80L130.60-98.80Q130.60-79.80 118.40-68.40L118.40-68.40L118.40-68.40Q106.40-57 85.40-57L85.40-57L85.40-57Q75.60-57 68-62.60L68-62.60L68-62.60Q64.40-65 62-68.20L62-68.20L62-68.20Q76.60-68.20 84.30-77.10L84.30-77.10L84.30-77.10Q92-86 92-103.40L92-103.40L92-103.40Q92-120.80 74.80-120.80L74.80-120.80L70-120.80L70-120.80Q68.80-120.80 67.80-120.60L67.80-120.60L44.80 0L1.40 0L26-131L26-131Q47.40-133 59.80-133.20L59.80-133.20L59.80-133.20Q72.20-133.40 81.60-133.40ZM134.60-48.80L134.60-48.80L134.60-48.80Q134.60-86.60 154.20-110.40L154.20-110.40L154.20-110.40Q175.00-136.20 211.20-136.20L211.20-136.20L211.20-136.20Q237.40-136.20 250.60-123.50L250.60-123.50L250.60-123.50Q263.80-110.80 263.80-84L263.80-84L263.80-84Q263.80-43.20 243.00-19.40L243.00-19.40L243.00-19.40Q222.40 4 187.80 4L187.80 4L187.80 4Q160.80 4 147.70-9.50L147.70-9.50L147.70-9.50Q134.60-23 134.60-48.80ZM187.20-90.20L187.20-90.20L187.20-90.20Q178.20-54.20 178.20-25.80L178.20-25.80L178.20-25.80Q178.20-19 180.50-14.60L180.50-14.60L180.50-14.60Q182.80-10.20 188.90-10.20L188.90-10.20L188.90-10.20Q195-10.20 198.80-13.10L198.80-13.10L198.80-13.10Q202.60-16 205.60-22.60L205.60-22.60L205.60-22.60Q210.40-33.40 214.90-56.30L214.90-56.30L214.90-56.30Q219.40-79.20 219.80-88.70L219.80-88.70L219.80-88.70Q220.20-98.20 220.20-105.40L220.20-105.40L220.20-105.40Q220.20-112.60 218.00-117.20L218.00-117.20L218.00-117.20Q215.80-121.80 209.90-121.80L209.90-121.80L209.90-121.80Q204-121.80 200-118.20L200-118.20L200-118.20Q192.60-111.40 187.20-90.20ZM351.60-92.40L351.60-92.40L351.60-92.40Q354.60-98.40 354.60-104L354.60-104L354.60-104Q354.60-109.60 354.00-112.70L354.00-112.70L354.00-112.70Q353.40-115.80 352.00-118.20L352.00-118.20L352.00-118.20Q349.00-123.40 343.00-123.40L343.00-123.40L343.00-123.40Q335.60-123.40 329.60-118L329.60-118L329.60-118Q323.20-112.40 323.20-103.60L323.20-103.60L323.20-103.60Q323.20-98 327.10-93.70L327.10-93.70L327.10-93.70Q331.00-89.40 337.00-85.40L337.00-85.40L337.00-85.40Q343.00-81.40 349.80-77.40L349.80-77.40L349.80-77.40Q356.60-73.40 362.60-68.60L362.60-68.60L362.60-68.60Q376.40-57.60 376.40-42.80L376.40-42.80L376.40-42.80Q376.40-32.80 371.10-24.30L371.10-24.30L371.10-24.30Q365.80-15.80 357.00-9.60L357.00-9.60L357.00-9.60Q337.80 4 312.40 4L312.40 4L312.40 4Q291.80 4 281.20-2.70L281.20-2.70L281.20-2.70Q270.60-9.40 270.60-19.60L270.60-19.60L270.60-19.60Q270.60-37.80 284.80-42.40L284.80-42.40L284.80-42.40Q288.80-43.80 294.90-43.80L294.90-43.80L294.90-43.80Q301.00-43.80 308.00-41.20L308.00-41.20L308.00-41.20Q304.80-33 304.80-25.60L304.80-25.60L304.80-25.60Q304.80-9.60 316.20-9.60L316.20-9.60L316.20-9.60Q323.60-9.60 329.70-15L329.70-15L329.70-15Q335.80-20.40 335.80-26.50L335.80-26.50L335.80-26.50Q335.80-32.60 331.90-37L331.90-37L331.90-37Q328.00-41.40 322.20-44.90L322.20-44.90L322.20-44.90Q316.40-48.40 309.70-51.80L309.70-51.80L309.70-51.80Q303.00-55.20 297.20-60L297.20-60L297.20-60Q283.60-71 283.60-88.60L283.60-88.60L283.60-88.60Q283.60-100 289.20-108.90L289.20-108.90L289.20-108.90Q294.80-117.80 303.80-123.80L303.80-123.80L303.80-123.80Q321.80-136 343.90-136L343.90-136L343.90-136Q366.00-136 376.70-129.40L376.70-129.40L376.70-129.40Q387.40-122.80 387.40-111.60L387.40-111.60L387.40-111.60Q387.40-101.80 379.80-95.60L379.80-95.60L379.80-95.60Q373.20-90.40 365.20-90.40L365.20-90.40L365.20-90.40Q357.20-90.40 351.60-92.40Z" fill="#5e6691"></path></g></g><style>text {
  font-size: 64px;
  font-family: Arial Black;
  dominant-baseline: central;
  text-anchor: middle;
}</style></svg>