<svg width="377.4295654296875px" height="249.6640625px" xmlns="http://www.w3.org/2000/svg" viewBox="61.28521728515625 -49.83203125 377.4295654296875 249.6640625" style="background: none;" preserveAspectRatio="xMidYMid"><defs><linearGradient id="editing-shadow-gradient1" x1="0" x2="0" y1="0" y2="1"><stop offset="0" stop-color="#000000" stop-opacity="0"></stop><stop offset="0.2" stop-color="#000000" stop-opacity="0"></stop><stop offset="1" stop-color="#000000" stop-opacity="1"></stop></linearGradient><linearGradient id="editing-shadow-gradient2" x1="-0.254709580222772" x2="1.2547095802227721" y1="-0.15605902899050716" y2="1.1560590289905073"><stop offset="0" stop-color="#ffffff"></stop><stop offset="1" stop-color="#fec918"></stop></linearGradient><filter id="editing-shadow" x="-100%" y="-100%" width="300%" height="300%"><feGaussianBlur stdDeviation="2"></feGaussianBlur><feComposite operator="in" in2="SourceGraphic"></feComposite><feGaussianBlur stdDeviation="1"></feGaussianBlur></filter></defs><g transform="translate(250,75)"><g transform="translate(-44.7, -1.2)"><g transform="skewX(45)"><g filter="url(#editing-shadow)"><g transform="translate(-47.57025623321533, 50.67499923706055)"><path d="M78.16-30.01L78.16-30.01L78.16-30.01Q81.92-27.26 81.92-21.39L81.92-21.39L81.92-21.39Q81.92-15.51 79.39-11.38L79.39-11.38L79.39-11.38Q76.85-7.25 71.92-4.06L71.92-4.06L71.92-4.06Q61.33 2.75 42.85 2.75L42.85 2.75L42.85 2.75Q24.36 2.75 14.28-6.89L14.28-6.89L14.28-6.89Q4.21-16.53 4.21-33.64L4.21-33.64L4.21-33.64Q4.21-57.85 16.82-76.27L16.82-76.27L16.82-76.27Q26.39-89.90 43.50-95.70L43.50-95.70L43.50-95.70Q52.34-98.60 61.04-98.60L61.04-98.60L61.04-98.60Q69.74-98.60 75.11-97.44L75.11-97.44L75.11-97.44Q80.47-96.28 84.53-93.96L84.53-93.96L84.53-93.96Q93.38-88.88 93.38-80.77L93.38-80.77L93.38-80.77Q93.38-73.37 86.42-67.86L86.42-67.86L86.42-67.86Q80.04-62.93 74.82-62.93L74.82-62.93L74.82-62.93Q69.60-62.93 67.42-63.65L67.42-63.65L67.42-63.65Q68.00-68.88 68.00-72.28L68.00-72.28L68.00-72.28Q68.00-75.69 67.86-78.16L67.86-78.16L67.86-78.16Q67.71-80.62 66.99-82.94L66.99-82.94L66.99-82.94Q65.54-88.30 61.12-88.30L61.12-88.30L61.12-88.30Q56.69-88.30 52.27-84.17L52.27-84.17L52.27-84.17Q47.85-80.04 44.08-73.08L44.08-73.08L44.08-73.08Q35.52-57.27 35.52-38.57L35.52-38.57L35.52-38.57Q35.52-29.58 40.60-24.43L40.60-24.43L40.60-24.43Q45.67-19.29 56.55-19.29L56.55-19.29L56.55-19.29Q64.67-19.29 72.35-24.65L72.35-24.65L72.35-24.65Q75.69-26.97 78.16-30.01Z" fill="url(#editing-shadow-gradient1)"></path></g></g></g></g><g><g transform="translate(-47.73873996734619, 50.67499923706055)"><path d="M78.16-30.01L78.16-30.01L78.16-30.01Q81.92-27.26 81.92-21.39L81.92-21.39L81.92-21.39Q81.92-15.51 79.39-11.38L79.39-11.38L79.39-11.38Q76.85-7.25 71.92-4.06L71.92-4.06L71.92-4.06Q61.33 2.75 42.85 2.75L42.85 2.75L42.85 2.75Q24.36 2.75 14.28-6.89L14.28-6.89L14.28-6.89Q4.21-16.53 4.21-33.64L4.21-33.64L4.21-33.64Q4.21-57.85 16.82-76.27L16.82-76.27L16.82-76.27Q26.39-89.90 43.50-95.70L43.50-95.70L43.50-95.70Q52.34-98.60 61.04-98.60L61.04-98.60L61.04-98.60Q69.74-98.60 75.11-97.44L75.11-97.44L75.11-97.44Q80.47-96.28 84.53-93.96L84.53-93.96L84.53-93.96Q93.38-88.88 93.38-80.77L93.38-80.77L93.38-80.77Q93.38-73.37 86.42-67.86L86.42-67.86L86.42-67.86Q80.04-62.93 74.82-62.93L74.82-62.93L74.82-62.93Q69.60-62.93 67.42-63.65L67.42-63.65L67.42-63.65Q68.00-68.88 68.00-72.28L68.00-72.28L68.00-72.28Q68.00-75.69 67.86-78.16L67.86-78.16L67.86-78.16Q67.71-80.62 66.99-82.94L66.99-82.94L66.99-82.94Q65.54-88.30 61.12-88.30L61.12-88.30L61.12-88.30Q56.69-88.30 52.27-84.17L52.27-84.17L52.27-84.17Q47.85-80.04 44.08-73.08L44.08-73.08L44.08-73.08Q35.52-57.27 35.52-38.57L35.52-38.57L35.52-38.57Q35.52-29.58 40.60-24.43L40.60-24.43L40.60-24.43Q45.67-19.29 56.55-19.29L56.55-19.29L56.55-19.29Q64.67-19.29 72.35-24.65L72.35-24.65L72.35-24.65Q75.69-26.97 78.16-30.01Z" fill="url(#editing-shadow-gradient2)"></path></g></g></g><style>text {
  font-size: 64px;
  font-family: Arial Black;
  dominant-baseline: central;
  text-anchor: middle;
}</style></svg>