<svg width="701.3990234375px" height="337.45390625px" xmlns="http://www.w3.org/2000/svg" viewBox="-100.69951171874999 -93.726953125 701.3990234375 337.45390625" style="background: none;" preserveAspectRatio="xMidYMid"><defs><linearGradient id="editing-shadow-gradient1" x1="0" x2="0" y1="0" y2="1"><stop offset="0" stop-color="#000000" stop-opacity="0"></stop><stop offset="0.2" stop-color="#000000" stop-opacity="0"></stop><stop offset="1" stop-color="#000000" stop-opacity="1"></stop></linearGradient><linearGradient id="editing-shadow-gradient2" x1="-0.254709580222772" x2="1.2547095802227721" y1="-0.15605902899050716" y2="1.1560590289905073"><stop offset="0" stop-color="#ffffff"></stop><stop offset="1" stop-color="#fec918"></stop></linearGradient><filter id="editing-shadow" x="-100%" y="-100%" width="300%" height="300%"><feGaussianBlur stdDeviation="2"></feGaussianBlur><feComposite operator="in" in2="SourceGraphic"></feComposite><feGaussianBlur stdDeviation="1"></feGaussianBlur></filter></defs><g transform="translate(250,75)"><g transform="translate(-61.2, -1.2)"><g transform="skewX(45)"><g filter="url(#editing-shadow)"><g transform="translate(-136.0000123977661, 70)"><path d="M107.80-41.40L107.80-41.40L107.80-41.40Q113-37.60 113-29.50L113-29.50L113-29.50Q113-21.40 109.50-15.70L109.50-15.70L109.50-15.70Q106-10 99.20-5.60L99.20-5.60L99.20-5.60Q84.60 3.80 59.10 3.80L59.10 3.80L59.10 3.80Q33.60 3.80 19.70-9.50L19.70-9.50L19.70-9.50Q5.80-22.80 5.80-46.40L5.80-46.40L5.80-46.40Q5.80-79.80 23.20-105.20L23.20-105.20L23.20-105.20Q36.40-124 60-132L60-132L60-132Q72.20-136 84.20-136L84.20-136L84.20-136Q96.20-136 103.60-134.40L103.60-134.40L103.60-134.40Q111-132.80 116.60-129.60L116.60-129.60L116.60-129.60Q128.80-122.60 128.80-111.40L128.80-111.40L128.80-111.40Q128.80-101.20 119.20-93.60L119.20-93.60L119.20-93.60Q110.40-86.80 103.20-86.80L103.20-86.80L103.20-86.80Q96-86.80 93-87.80L93-87.80L93-87.80Q93.80-95 93.80-99.70L93.80-99.70L93.80-99.70Q93.80-104.40 93.60-107.80L93.60-107.80L93.60-107.80Q93.40-111.20 92.40-114.40L92.40-114.40L92.40-114.40Q90.40-121.80 84.30-121.80L84.30-121.80L84.30-121.80Q78.20-121.80 72.10-116.10L72.10-116.10L72.10-116.10Q66-110.40 60.80-100.80L60.80-100.80L60.80-100.80Q49-79 49-53.20L49-53.20L49-53.20Q49-40.80 56-33.70L56-33.70L56-33.70Q63-26.60 78-26.60L78-26.60L78-26.60Q89.20-26.60 99.80-34L99.80-34L99.80-34Q104.40-37.20 107.80-41.40ZM204.20-15L204.20-15L204.20-15Q204.20-29 209.80-57L209.80-57L180.20-57L169.20 0L127.40 0L152.80-132L195-132L183.40-73L213-73L224-132L266.20-132L266.20-132Q263.40-117.20 259.80-100.60L259.80-100.60L253-68L253-68Q245.40-30 245.40-13.40L245.40-13.40L245.40-13.40Q245.40-6.60 247.60-2.80L247.60-2.80L247.60-2.80Q237.60 4 225.90 4L225.90 4L225.90 4Q214.20 4 209.20-1.60L209.20-1.60L209.20-1.60Q204.20-7.20 204.20-15Z" fill="url(#editing-shadow-gradient1)"></path></g></g></g></g><g><g transform="translate(-136.0000123977661, 70)"><path d="M107.80-41.40L107.80-41.40L107.80-41.40Q113-37.60 113-29.50L113-29.50L113-29.50Q113-21.40 109.50-15.70L109.50-15.70L109.50-15.70Q106-10 99.20-5.60L99.20-5.60L99.20-5.60Q84.60 3.80 59.10 3.80L59.10 3.80L59.10 3.80Q33.60 3.80 19.70-9.50L19.70-9.50L19.70-9.50Q5.80-22.80 5.80-46.40L5.80-46.40L5.80-46.40Q5.80-79.80 23.20-105.20L23.20-105.20L23.20-105.20Q36.40-124 60-132L60-132L60-132Q72.20-136 84.20-136L84.20-136L84.20-136Q96.20-136 103.60-134.40L103.60-134.40L103.60-134.40Q111-132.80 116.60-129.60L116.60-129.60L116.60-129.60Q128.80-122.60 128.80-111.40L128.80-111.40L128.80-111.40Q128.80-101.20 119.20-93.60L119.20-93.60L119.20-93.60Q110.40-86.80 103.20-86.80L103.20-86.80L103.20-86.80Q96-86.80 93-87.80L93-87.80L93-87.80Q93.80-95 93.80-99.70L93.80-99.70L93.80-99.70Q93.80-104.40 93.60-107.80L93.60-107.80L93.60-107.80Q93.40-111.20 92.40-114.40L92.40-114.40L92.40-114.40Q90.40-121.80 84.30-121.80L84.30-121.80L84.30-121.80Q78.20-121.80 72.10-116.10L72.10-116.10L72.10-116.10Q66-110.40 60.80-100.80L60.80-100.80L60.80-100.80Q49-79 49-53.20L49-53.20L49-53.20Q49-40.80 56-33.70L56-33.70L56-33.70Q63-26.60 78-26.60L78-26.60L78-26.60Q89.20-26.60 99.80-34L99.80-34L99.80-34Q104.40-37.20 107.80-41.40ZM204.20-15L204.20-15L204.20-15Q204.20-29 209.80-57L209.80-57L180.20-57L169.20 0L127.40 0L152.80-132L195-132L183.40-73L213-73L224-132L266.20-132L266.20-132Q263.40-117.20 259.80-100.60L259.80-100.60L253-68L253-68Q245.40-30 245.40-13.40L245.40-13.40L245.40-13.40Q245.40-6.60 247.60-2.80L247.60-2.80L247.60-2.80Q237.60 4 225.90 4L225.90 4L225.90 4Q214.20 4 209.20-1.60L209.20-1.60L209.20-1.60Q204.20-7.20 204.20-15Z" fill="url(#editing-shadow-gradient2)"></path></g></g></g><style>text {
  font-size: 64px;
  font-family: Arial Black;
  dominant-baseline: central;
  text-anchor: middle;
}</style></svg>